<?xml version="1.0" encoding="UTF-8"?>
<!-- Generator: Adobe Illustrator 17.0.0, SVG Export Plug-In . SVG Version: 6.00 Build 0)  -->
<!DOCTYPE svg PUBLIC "-//W3C//DTD SVG 1.1//EN" "http://www.w3.org/Graphics/SVG/1.1/DTD/svg11.dtd">
<svg version="1.1" id="Layer_1" xmlns="http://www.w3.org/2000/svg" xmlns:xlink="http://www.w3.org/1999/xlink" x="0px" y="0px" width="821px" height="166px" viewBox="0 0 821 166" enable-background="new 0 0 821 166" xml:space="preserve">
<g>
	<g>
		<path fill="#313133" d="M221.128,60.172c-6.54,0.112-12.424,1.167-17.657,3.209c-5.239,2.019-9.092,5.059-11.572,9.12v53.195    h-27.018V37.029h24.825v9.793c7.539-9.748,21.796-10.915,27.198-11.139c2.243,0,3.652,0.056,4.224,0.168V60.172z"/>
	</g>
	<g>
		<path fill="#313133" d="M557.256,125.696h-27.035V75.877c0-5.743-1.15-9.972-3.455-12.665c-2.314-2.715-5.441-4.05-9.372-4.05    c-1.588,0-3.298,0.359-5.155,1.1c-1.857,0.729-3.652,1.783-5.402,3.208c-1.75,1.402-3.348,3.051-4.823,4.969    c-1.465,1.93-2.586,4.061-3.371,6.428v50.829h-27.024V2.411h27.024v49.482c3.264-5.284,7.572-9.367,12.923-12.239    c5.345-2.883,11.279-4.308,17.82-4.308c5.962,0,10.769,1.032,14.437,3.108c3.651,2.086,6.476,4.745,8.442,7.953    c1.963,3.209,3.295,6.81,3.971,10.814c0.673,3.994,1.021,7.909,1.021,11.723V125.696z"/>
	</g>
	<path fill="#EC4F3D" d="M326.375,2.411V26.9h30.078V2.411H326.375z"/>
	<path fill="#313133" d="M326.375,37.029v88.666l14.948,17.971l15.116-17.971h0.014V37.029H326.375z M333.829,45.409h6.069v71.919   h-6.069V45.409z M343.639,137.081h-4.47l-9.463-11.026h23.21L343.639,137.081z"/>
	<path fill="#313133" d="M267.447,37.074c-25.156,0-45.556,20.394-45.556,45.556c0,25.173,20.4,45.568,45.556,45.568h50.105V37.074   H267.447z M294.151,103.889h-26.704c-11.712,0-21.247-9.536-21.247-21.259c0-11.722,9.535-21.247,21.247-21.247h26.704V103.889z"/>
	<path fill="#EC4F3D" d="M664.775,37.074c-25.156,0-45.562,20.394-45.562,45.556c0,25.173,20.406,45.568,45.562,45.568h50.104   V37.074H664.775z M691.474,103.889h-26.699c-11.717,0-21.247-9.536-21.247-21.259c0-11.722,9.53-21.247,21.247-21.247h26.699   V103.889z"/>
	<path fill="#EC4F3D" d="M797.354,2.411v34.663h-27.456c-25.161,0-45.561,20.394-45.561,45.556c0,25.173,20.4,45.568,45.561,45.568   h27.456H820V37.074V2.411H797.354z M796.591,103.889h-26.694c-11.716,0-21.252-9.536-21.252-21.259   c0-11.722,9.536-21.247,21.252-21.247h26.694V103.889z"/>
	<path fill="#313133" d="M618.456,57.468V37.029h-18.078V8.827H573.36v28.202h-11.313v20.439h11.313v44.154   c-0.569,28.964,12.194,26.576,25.981,26.576h12.525v-21.224h-4.202c-4.487,0-7.303-3.152-7.286-6.428   c-0.017-11.105,0-43.077,0-43.077H618.456z"/>
	<path fill="#313133" d="M156.052,57.468V37.029h-18.078V8.827H110.95v28.202H99.643v20.439h11.307v44.154   c-0.56,28.964,12.2,26.576,25.987,26.576h12.525v-21.224h-4.202c-4.492,0-7.311-3.152-7.286-6.428c-0.025-11.105,0-43.077,0-43.077   H156.052z"/>
	<path fill="#313133" d="M34.45,59.633h56.361V37.198H34.45c-17.587,0-31.843,10.298-31.843,27.877   c0,17.59,14.255,28.875,31.843,28.875l24.522,0.168c5.188,0,9.406,0.258,9.406,5.441s-4.218,6.439-9.406,6.439H2.608v22.424h56.364   c17.584,0,31.839-11.274,31.839-28.864c0-17.578-14.255-27.876-31.839-27.876L34.45,71.513c-5.188,0-9.407-1.256-9.407-6.439   C25.043,59.891,29.262,59.633,34.45,59.633z"/>
	<path fill="none" d="M390.042,82.63c0,11.723,9.536,21.259,21.252,21.259h26.699V61.383h-26.699   C399.578,61.383,390.042,70.908,390.042,82.63z"/>
	<path fill="#313133" d="M461.394,125.729V37.074h-50.1c-25.164,0-45.562,20.394-45.562,45.556   c0,25.173,20.397,45.568,45.562,45.568h20.647c2.732,0.829,4.633,2.423,4.633,5.563c0,3.445-2.3,6.676-7.818,6.676h-52.876v22.3   h61.62C463.48,162.737,461.394,145.833,461.394,125.729z M437.993,103.889h-26.699c-11.716,0-21.252-9.536-21.252-21.259   c0-11.722,9.536-21.247,21.252-21.247h26.699V103.889z"/>
</g>
</svg>